<svg xmlns="http://www.w3.org/2000/svg" width="1200" height="675" viewBox="0 0 1200 675">
  <defs>
    <marker id="arrow" markerWidth="8" markerHeight="8" refX="7" refY="4" orient="auto" markerUnits="strokeWidth">
      <path d="M0,0 L8,4 L0,8" fill="none" stroke="#222222" stroke-width="1"/>
    </marker>
  </defs>
  <rect width="1200" height="675" fill="#FFFFFF"/>
  <text x="88" y="66" fill="#111111" font-family="PingFang SC, Source Han Sans SC, Arial, sans-serif" font-size="32" font-weight="600">Geometry Board：把内容画成看得懂的图</text>
  <text x="88" y="98" fill="#666666" font-family="PingFang SC, Source Han Sans SC, Arial, sans-serif" font-size="16">说清楚 → 画关系 → 放回文档</text>
  <line x1="88" y1="126" x2="1112" y2="126" stroke="#E8E8E8" stroke-width="1"/>

  <line x1="120" y1="228" x2="1080" y2="228" stroke="#E8E8E8" stroke-width="1"/>
  <line x1="120" y1="220" x2="120" y2="236" stroke="#B8B8B8" stroke-width="1"/>
  <line x1="600" y1="220" x2="600" y2="236" stroke="#B8B8B8" stroke-width="1"/>
  <line x1="1080" y1="220" x2="1080" y2="236" stroke="#B8B8B8" stroke-width="1"/>
  <text x="112" y="198" fill="#999999" font-family="PingFang SC, Source Han Sans SC, Arial, sans-serif" font-size="12" letter-spacing="2">输入</text>
  <text x="584" y="198" fill="#999999" font-family="PingFang SC, Source Han Sans SC, Arial, sans-serif" font-size="12" letter-spacing="2">处理</text>
  <text x="1056" y="198" fill="#999999" font-family="PingFang SC, Source Han Sans SC, Arial, sans-serif" font-size="12" letter-spacing="2">结果</text>

  <line x1="128" y1="350" x2="1072" y2="350" stroke="#222222" stroke-width="1" marker-end="url(#arrow)"/>
  <line x1="128" y1="306" x2="1072" y2="306" stroke="#E8E8E8" stroke-width="0.5" stroke-dasharray="4 8"/>
  <line x1="128" y1="394" x2="1072" y2="394" stroke="#E8E8E8" stroke-width="0.5" stroke-dasharray="4 8"/>

  <text x="120" y="278" fill="#111111" font-family="PingFang SC, Source Han Sans SC, Arial, sans-serif" font-size="22" font-weight="600">内容</text>
  <line x1="176" y1="292" x2="176" y2="408" stroke="#B8B8B8" stroke-width="1"/>
  <circle cx="176" cy="306" r="5" fill="#999999"/>
  <text x="194" y="312" fill="#666666" font-family="PingFang SC, Source Han Sans SC, Arial, sans-serif" font-size="16">长文档</text>
  <circle cx="176" cy="350" r="5" fill="#999999"/>
  <text x="194" y="356" fill="#666666" font-family="PingFang SC, Source Han Sans SC, Arial, sans-serif" font-size="16">关系多</text>
  <circle cx="176" cy="394" r="5" fill="#999999"/>
  <text x="194" y="400" fill="#666666" font-family="PingFang SC, Source Han Sans SC, Arial, sans-serif" font-size="16">要决策</text>
  <line x1="228" y1="350" x2="468" y2="350" stroke="#222222" stroke-width="1" marker-end="url(#arrow)"/>
  <text x="300" y="334" fill="#999999" font-family="PingFang SC, Source Han Sans SC, Arial, sans-serif" font-size="12">先理清</text>

  <polygon points="600,260 690,350 600,440 510,350" fill="#F5F5F5" stroke="#2F6BFF" stroke-width="1.5"/>
  <circle cx="600" cy="350" r="42" fill="#FFFFFF" stroke="#2F6BFF" stroke-width="1.5"/>
  <line x1="600" y1="284" x2="600" y2="416" stroke="#B8B8B8" stroke-width="0.5" stroke-dasharray="4 8"/>
  <line x1="534" y1="350" x2="666" y2="350" stroke="#B8B8B8" stroke-width="0.5" stroke-dasharray="4 8"/>
  <circle cx="600" cy="260" r="5" fill="#2F6BFF"/>
  <circle cx="690" cy="350" r="5" fill="#2F6BFF"/>
  <circle cx="600" cy="440" r="5" fill="#2F6BFF"/>
  <circle cx="510" cy="350" r="5" fill="#2F6BFF"/>
  <text x="566" y="346" fill="#111111" font-family="PingFang SC, Source Han Sans SC, Arial, sans-serif" font-size="20" font-weight="600">几何</text>
  <text x="566" y="372" fill="#111111" font-family="PingFang SC, Source Han Sans SC, Arial, sans-serif" font-size="20" font-weight="600">画板</text>
  <text x="532" y="246" fill="#666666" font-family="PingFang SC, Source Han Sans SC, Arial, sans-serif" font-size="14">说清楚</text>
  <text x="704" y="356" fill="#666666" font-family="PingFang SC, Source Han Sans SC, Arial, sans-serif" font-size="14">画关系</text>
  <text x="532" y="468" fill="#666666" font-family="PingFang SC, Source Han Sans SC, Arial, sans-serif" font-size="14">放回文档</text>

  <line x1="732" y1="350" x2="944" y2="350" stroke="#222222" stroke-width="1" marker-end="url(#arrow)"/>
  <text x="810" y="334" fill="#999999" font-family="PingFang SC, Source Han Sans SC, Arial, sans-serif" font-size="12">看得见</text>
  <text x="970" y="278" fill="#111111" font-family="PingFang SC, Source Han Sans SC, Arial, sans-serif" font-size="22" font-weight="600">下一步</text>
  <line x1="1000" y1="292" x2="1000" y2="408" stroke="#B8B8B8" stroke-width="1"/>
  <circle cx="1000" cy="306" r="5" fill="#2F6BFF"/>
  <text x="1020" y="312" fill="#666666" font-family="PingFang SC, Source Han Sans SC, Arial, sans-serif" font-size="16">看懂</text>
  <circle cx="1000" cy="350" r="5" fill="#2F6BFF"/>
  <text x="1020" y="356" fill="#666666" font-family="PingFang SC, Source Han Sans SC, Arial, sans-serif" font-size="16">对齐</text>
  <circle cx="1000" cy="394" r="5" fill="#2F6BFF"/>
  <text x="1020" y="400" fill="#666666" font-family="PingFang SC, Source Han Sans SC, Arial, sans-serif" font-size="16">行动</text>

  <line x1="88" y1="506" x2="1112" y2="506" stroke="#E8E8E8" stroke-width="1"/>
  <circle cx="112" cy="554" r="5" fill="#2F6BFF"/>
  <text x="128" y="560" fill="#666666" font-family="PingFang SC, Source Han Sans SC, Arial, sans-serif" font-size="16">少字</text>
  <circle cx="360" cy="554" r="5" fill="#2F6BFF"/>
  <text x="376" y="560" fill="#666666" font-family="PingFang SC, Source Han Sans SC, Arial, sans-serif" font-size="16">重点清楚</text>
  <circle cx="632" cy="554" r="5" fill="#2F6BFF"/>
  <text x="648" y="560" fill="#666666" font-family="PingFang SC, Source Han Sans SC, Arial, sans-serif" font-size="16">放对位置</text>
  <text x="896" y="560" fill="#999999" font-family="PingFang SC, Source Han Sans SC, Arial, sans-serif" font-size="14">图讲关系｜正文讲细节</text>
</svg>
