<svg xmlns="http://www.w3.org/2000/svg" width="1200" height="675" viewBox="0 0 1200 675">
  <defs>
    <marker id="arrow" markerWidth="8" markerHeight="8" refX="7" refY="4" orient="auto" markerUnits="strokeWidth">
      <path d="M0,0 L8,4 L0,8" fill="none" stroke="#222222" stroke-width="1"/>
    </marker>
  </defs>
  <rect width="1200" height="675" fill="#FFFFFF"/>
  <text x="88" y="66" fill="#111111" font-family="PingFang SC, Source Han Sans SC, Arial, sans-serif" font-size="32" font-weight="600">Geometry Board：把内容画成看得懂的图</text>
  <text x="88" y="98" fill="#666666" font-family="PingFang SC, Source Han Sans SC, Arial, sans-serif" font-size="16">说清楚 → 画关系 → 放回文档</text>
  <line x1="88" y1="126" x2="1112" y2="126" stroke="#E8E8E8" stroke-width="1"/>

  <line x1="120" y1="228" x2="1080" y2="228" stroke="#E8E8E8" stroke-width="1"/>
  <line x1="120" y1="220" x2="120" y2="236" stroke="#B8B8B8" stroke-width="1"/>
  <line x1="600" y1="220" x2="600" y2="236" stroke="#B8B8B8" stroke-width="1"/>
  <line x1="1080" y1="220" x2="1080" y2="236" stroke="#B8B8B8" stroke-width="1"/>
  <text x="112" y="198" fill="#999999" font-family="PingFang SC, Source Han Sans SC, Arial, sans-serif" font-size="12" letter-spacing="2">内容</text>
  <text x="584" y="198" fill="#999999" font-family="PingFang SC, Source Han Sans SC, Arial, sans-serif" font-size="12" letter-spacing="2">画板</text>
  <text x="1056" y="198" fill="#999999" font-family="PingFang SC, Source Han Sans SC, Arial, sans-serif" font-size="12" letter-spacing="2">结果</text>

  <line x1="128" y1="350" x2="1072" y2="350" stroke="#222222" stroke-width="1"/>
  <line x1="128" y1="306" x2="1072" y2="306" stroke="#E8E8E8" stroke-width="0.5" stroke-dasharray="4 8"/>
  <line x1="128" y1="394" x2="1072" y2="394" stroke="#E8E8E8" stroke-width="0.5" stroke-dasharray="4 8"/>

  <circle cx="220" cy="350" r="28" fill="#F5F5F5" stroke="#B8B8B8" stroke-width="1"/>
  <text x="220" y="357" text-anchor="middle" fill="#111111" font-family="PingFang SC, Source Han Sans SC, Arial, sans-serif" font-size="18" font-weight="600">内容</text>
  <line x1="248" y1="350" x2="508" y2="350" stroke="#222222" stroke-width="1" marker-end="url(#arrow)"/>

  <polygon points="600,260 690,350 600,440 510,350" fill="#F5F5F5" stroke="#2F6BFF" stroke-width="1.5"/>
  <circle cx="600" cy="350" r="42" fill="#FFFFFF" stroke="#2F6BFF" stroke-width="1.5"/>
  <line x1="600" y1="284" x2="600" y2="416" stroke="#B8B8B8" stroke-width="0.5" stroke-dasharray="4 8"/>
  <line x1="534" y1="350" x2="666" y2="350" stroke="#B8B8B8" stroke-width="0.5" stroke-dasharray="4 8"/>
  <circle cx="600" cy="260" r="5" fill="#2F6BFF"/>
  <circle cx="690" cy="350" r="5" fill="#2F6BFF"/>
  <circle cx="600" cy="440" r="5" fill="#2F6BFF"/>
  <circle cx="510" cy="350" r="5" fill="#2F6BFF"/>
  <text x="600" y="357" text-anchor="middle" fill="#111111" font-family="PingFang SC, Source Han Sans SC, Arial, sans-serif" font-size="18" font-weight="600">几何画板</text>

  <line x1="732" y1="350" x2="944" y2="350" stroke="#222222" stroke-width="1" marker-end="url(#arrow)"/>
  <text x="810" y="334" fill="#999999" font-family="PingFang SC, Source Han Sans SC, Arial, sans-serif" font-size="12">看得见</text>
  <circle cx="900" cy="350" r="5" fill="#2F6BFF"/>
  <text x="900" y="386" text-anchor="middle" fill="#666666" font-family="PingFang SC, Source Han Sans SC, Arial, sans-serif" font-size="16">看懂</text>
  <circle cx="970" cy="350" r="5" fill="#2F6BFF"/>
  <text x="970" y="386" text-anchor="middle" fill="#666666" font-family="PingFang SC, Source Han Sans SC, Arial, sans-serif" font-size="16">对齐</text>
  <circle cx="1040" cy="350" r="5" fill="#2F6BFF"/>
  <text x="1040" y="386" text-anchor="middle" fill="#666666" font-family="PingFang SC, Source Han Sans SC, Arial, sans-serif" font-size="16">行动</text>
  <text x="600" y="500" text-anchor="middle" fill="#999999" font-family="PingFang SC, Source Han Sans SC, Arial, sans-serif" font-size="14">说清楚 · 画关系 · 放回文档</text>
</svg>
